<svg xmlns="http://www.w3.org/2000/svg" width="336.229" height="60" viewBox="0 0 336.229 60"><g transform="translate(-969 -720)"><path d="M210.775,30a30,30,0,1,1,30,30A30,30,0,0,1,210.775,30Zm27.809,6.237c-1.516,1.832-4.366,5.175-4.528,5.57-.434,1.251,1.6,2.049,2.89,2.53a6.826,6.826,0,0,0,2.988.64,1.056,1.056,0,0,0,.84-.668c.091-.308.079-6.959.1-7.231a1.3,1.3,0,0,0-1.351-1.285A1.165,1.165,0,0,0,238.584,36.237Zm4.839.221c.182.308,3.509,5.881,3.8,6.086a.963.963,0,0,0,1.038.119c1.133-.45,3.58-3.592,3.738-4.82h0a1.015,1.015,0,0,0-.371-1.015c-.237-.217-6.71-2.344-6.71-2.344a1.149,1.149,0,0,0-.387-.068A1.366,1.366,0,0,0,243.423,36.458Zm-13.835-4.93a14.029,14.029,0,0,0,0,2.786c.083.892.277,1.8,1.149,1.856.387,0,6.73-2.124,6.79-2.124a1.362,1.362,0,0,0,.086-2.495c-2.656-1.1-6.323-2.641-6.6-2.641l-.067,0C229.9,28.908,229.7,30.434,229.587,31.528Zm17.823-7.512c-.406.276-4.05,5.554-4.267,5.775a1.345,1.345,0,0,0,1.346,2.06v.036c.427-.146,6.592-1.6,6.924-1.824a1.113,1.113,0,0,0,.434-1.046c-.134-1.278-2.29-4.512-3.367-5.037a1.016,1.016,0,0,0-1.07.036ZM240.9,27.248c-.083-1.48-.679-10.95-.754-11.447a1.027,1.027,0,0,0-.79-.75c-1.283-.335-6.193,1.05-7.105,2.033a1.06,1.06,0,0,0-.312,1.034l6.248,10.007-.02-.008C239.44,30.15,241.039,29.542,240.9,27.248ZM140.517,30a30,30,0,1,1,30,30A30,30,0,0,1,140.517,30Zm15-6.063V36.063A8.949,8.949,0,0,0,164.453,45H176.58a8.946,8.946,0,0,0,8.937-8.937V23.937A8.949,8.949,0,0,0,176.58,15H164.453A8.949,8.949,0,0,0,155.516,23.937ZM70.258,30a30,30,0,1,1,30,30A30,30,0,0,1,70.258,30ZM90.39,19.563a5.306,5.306,0,0,0-4.429,3.221,37.474,37.474,0,0,0,0,14.436,5.338,5.338,0,0,0,4.413,3.221,93.493,93.493,0,0,0,19.769,0,5.338,5.338,0,0,0,4.413-3.221,37.487,37.487,0,0,0,.016-14.436,5.332,5.332,0,0,0-4.413-3.221,93.517,93.517,0,0,0-19.768,0ZM0,30A30,30,0,1,1,30,60,30,30,0,0,1,0,30Zm22.393-2.925v4.176a.79.79,0,0,0,.79.79h3.288l-.024,12.391A.561.561,0,0,0,27,45h4.421a.56.56,0,0,0,.552-.565V32.041h4.342a.79.79,0,0,0,.79-.7l.5-4.18a.79.79,0,0,0-.766-.884H31.973V22.781c0-1.587.418-2.649,2.637-2.684h2.049a.79.79,0,0,0,.79-.79V15.79a.79.79,0,0,0-.79-.79H33.316c-4.078,0-6.869,2.55-6.869,7.236v4.05H23.183A.789.789,0,0,0,22.393,27.075ZM163.855,43.167a6.506,6.506,0,0,1-6.506-6.506V23.342a6.505,6.505,0,0,1,6.506-6.5h13.322a6.505,6.505,0,0,1,6.506,6.5V36.661a6.506,6.506,0,0,1-6.506,6.506ZM161.986,30a8.527,8.527,0,1,0,8.525-8.529A8.527,8.527,0,0,0,161.986,30Zm15.61-10.02a2.108,2.108,0,1,0,1.49-.617A2.109,2.109,0,0,0,177.6,19.983Zm-81.408,3.7L106.471,30,96.188,36.318ZM165.308,30a5.209,5.209,0,1,1,5.208,5.209A5.209,5.209,0,0,1,165.308,30Z" transform="translate(969 720)" fill="#fff"/><path d="M24.729,48.459A23.736,23.736,0,0,1,15.493,2.865a23.736,23.736,0,0,1,18.473,43.73A23.58,23.58,0,0,1,24.729,48.459Z" transform="translate(1256.27 725.271)" fill="none" stroke="#fff" stroke-width="1"/><path d="M16.935,0H2.988A2.989,2.989,0,0,0,0,2.988v25.9a2.989,2.989,0,0,0,2.988,2.988H16.935a2.989,2.989,0,0,0,2.988-2.988V2.988A2.989,2.989,0,0,0,16.935,0ZM9.962,29.885a1.992,1.992,0,1,1,1.992-1.992A1.99,1.99,0,0,1,9.962,29.885Zm6.973-6.724a.749.749,0,0,1-.747.747H3.736a.749.749,0,0,1-.747-.747V3.736a.749.749,0,0,1,.747-.747H16.188a.749.749,0,0,1,.747.747Z" transform="translate(1271.038 734.062)" fill="#fff"/></g></svg>