<svg xmlns="http://www.w3.org/2000/svg" xmlns:xlink="http://www.w3.org/1999/xlink" width="1047.036" height="182.09" viewBox="0 0 1047.036 182.09"><defs><clipPath id="a"><path d="M575.148,58.356c-26.744,27.941-13.1,65.307-5.025,101.374C524.747,34.839,390.02,47.706,300.785,81.495,194.278,121.825,87.865,140.784,0,124.542c88.18-2.292,191.4-20.368,294.858-62.482C348.068,40.4,381.151,33.172,410.143,33.172c44.906,0,80.014,17.325,165,25.184" transform="translate(0 -33.172)" fill="#fff"/></clipPath><clipPath id="b"><path d="M703.052,0C787.929.089,870.2,23.157,960.09,48.351,882.3,77.432,822.778,107.2,754.065,121.62,902.058,41.637,789.536,8.05,677.321,23.987,590.629,36.3,495.827,73.793,463.274,100.295c20.01,5.1,44.419-4.244,64.514-8.382.966,7.873-2.675,13.232-11.552,19.847,47.188,8.954,104.332,17.238,146.436,20.371-112.773,8.841-203-9.92-311.663-10.952-76.826-.733-152,8.8-222.015,50.328,72.564-67.079,181.437-77.784,296.58-78.753C527.495,23.806,616.137.092,702.056,0Z" transform="translate(-128.993)" fill="#fff"/></clipPath></defs><g transform="translate(0)" opacity="0.2"><g transform="translate(471.888 55.531)"><g clip-path="url(#a)"><rect width="575.148" height="126.562" transform="translate(0 -0.003)" fill="#fff"/></g></g><g transform="translate(0)"><g clip-path="url(#b)"><rect width="831.097" height="171.508" transform="translate(0 0)" fill="#fff"/></g></g></g></svg>