<svg xmlns="http://www.w3.org/2000/svg" width="353.077" height="188.378" viewBox="0 0 353.077 188.378">
  <g id="vechile-types_" data-name="vechile-types " transform="translate(-497.386 -257.003)">
    <path id="Path_1" data-name="Path 1" d="M6.208,3965.5c.269.216,1.725.431,2.1.054a6.114,6.114,0,0,0,.5-.752h.7a5.693,5.693,0,0,0-.222,1.573c0,.007,0,.014,0,.021v.014a5.46,5.46,0,0,0,5.243,5.643c.151.012.3.02.456.02a5.69,5.69,0,0,0,2.031-.374,4.612,4.612,0,0,0,.9-.4c-.058.023-.12.045-.181.068a5.7,5.7,0,0,0,2.715-6.6h.928c.276.567.455.953.455.953l22.1.054s.278-.443.692-1.08h1.028a5.7,5.7,0,0,0-.254,1.686c0,.007,0,.014,0,.021v.014a5.46,5.46,0,0,0,5.243,5.643c.151.012.3.02.456.02a5.668,5.668,0,0,0,2.031-.374,4.568,4.568,0,0,0,.9-.4l-.181.068a5.7,5.7,0,0,0,2.682-6.71h.946c.046.471.071.8.071.8H60.43a1.192,1.192,0,0,0,.389-.647,11.077,11.077,0,0,0-.362-3.233,16.513,16.513,0,0,0-1.8-.216l-.72-1.668a1.884,1.884,0,0,0-.861-1.188,4.233,4.233,0,0,0-.952-.133c-.023-.093-.05-.2-.082-.309a2.74,2.74,0,0,0-.188-.654c-.144-.288-.252-.575-.252-.575h-.033a1.566,1.566,0,0,0-.434-.537c-.7-.485-13.635-1.293-13.635-1.293s-2.964-4.258-3.719-4.689a9.693,9.693,0,0,0-2.76-.524,6.538,6.538,0,0,0-.456-.967c-.269-.377-.719-.287-.772-.323H20.4a1.186,1.186,0,0,0-.647.2,1.811,1.811,0,0,0-.436.793l-9.444-.147s-1.347-.054-1.455.323c-.089.311-.836,7.9-1.1,10.563a5.192,5.192,0,0,0-.682.108c-.482.121-.7,4.958-.431,5.174m41.416.873a3.476,3.476,0,1,1,3.476,3.477,3.476,3.476,0,0,1-3.476-3.477M33.992,3949.7l-13.89-.216a3.038,3.038,0,0,1,.155-.393c.048-.084.29-.1.445-.108H33.389a1.075,1.075,0,0,1,.449.288.858.858,0,0,1,.154.429m-4.07,1.241c.33-.274,6.413.054,6.737,0s3.18,4.851,3.072,5.066a74.391,74.391,0,0,1-8.96-.148c-.391-.148-.714-1.765-.714-1.765a16.537,16.537,0,0,1-.135-3.153M20,3950.56c.537-.058,7.518-.136,7.821.133a21.962,21.962,0,0,1,.5,5.022c-.155.3-6.81.18-7.133.018a5.437,5.437,0,0,1-1.186-1.78c-.054-.268-.408-3.35,0-3.394m-8.495,15.8a3.476,3.476,0,1,1,3.476,3.476,3.476,3.476,0,0,1-3.476-3.476m-1.888-16.01a66.956,66.956,0,0,1,8.677.1c.414.276-.108,4.584-.269,4.8a61.258,61.258,0,0,1-8.893,0,24.809,24.809,0,0,1,.485-4.9" transform="translate(492.434 -3578.482)" fill="#987b33"/>
    <path id="Path_2" data-name="Path 2" d="M4961.87,3628.68v1.752s.829,1.046.924,1.114a25.348,25.348,0,0,0,2.7,0,3.7,3.7,0,0,0,.285-.7l4.343.614.5.038a4.379,4.379,0,0,0-.07.778.1.1,0,0,0,0,.017v.011a4.153,4.153,0,0,0,3.989,4.293c.114.009.23.015.347.015a4.329,4.329,0,0,0,1.545-.284,3.421,3.421,0,0,0,.688-.305c-.044.018-.091.033-.139.052a4.335,4.335,0,0,0,2.242-3.8v-.132l.161.012h.3v.015l21.8.355.784-.029v.1a4.154,4.154,0,0,0,3.988,4.293c.115.009.23.015.348.015a4.314,4.314,0,0,0,1.545-.283,3.48,3.48,0,0,0,.686-.306c-.043.018-.09.034-.138.051a4.333,4.333,0,0,0,2.242-3.8c0-.132-.007-.263-.019-.392l.731-.027h1.008v.009h3.386a5.5,5.5,0,0,0,.736-2.5c.2-1.632-.736-1.969-.736-1.969a4.3,4.3,0,0,0-.537-.055,2.256,2.256,0,0,0-.166-1.337,1.818,1.818,0,0,0-.8-.8s-.186-.01-.454-.014c-1.23-.874-2.376-1.679-6.479-1.885-4.25-.214-5.374-.267-5.374-.267s-5.3-4.549-6.689-4.656-14.448-.589-14.876-.267-.749,2.033-.749,3.96v1.231s-16-.749-16.214-.321a32.036,32.036,0,0,0-.324,4.209l-.021.429h.006c-.014.355-.023.638-.029.808-.71-.025-1.464-.039-1.464-.039m42.086,3.9a2.645,2.645,0,1,1,2.645,2.645,2.645,2.645,0,0,1-2.645-2.645m-13.738-13.1c.11-.23,4.923,0,4.923,0,.805.383,5.156,3.97,5.156,3.97s.341.358.168.578a.8.8,0,0,1-.723.294s-8.241-.107-8.589-.187a2.056,2.056,0,0,1-.936-.91,27.564,27.564,0,0,1,0-3.746m-8.224,3.74v-3.72a.362.362,0,0,1,.25-.354,1.885,1.885,0,0,1,.554-.047l4.651-.016a1.54,1.54,0,0,1,.541.135.551.551,0,0,1,.268.432v3.543a.589.589,0,0,1-.211.488,1.06,1.06,0,0,1-.591.182h-4.843s-.386,0-.52-.242a.6.6,0,0,1-.1-.4m-9.759,9.056a2.645,2.645,0,1,1,2.645,2.645,2.645,2.645,0,0,1-2.645-2.645" transform="translate(-4369.816 -3245.296)" fill="#987b33"/>
    <path id="Path_3" data-name="Path 3" d="M45.758,13.5a4.5,4.5,0,1,1,4.5,4.5A4.5,4.5,0,0,1,45.758,13.5Zm2,0a2.5,2.5,0,1,0,2.5-2.5,2.5,2.5,0,0,0-2.5,2.5Zm-40,0a4.5,4.5,0,1,1,4.5,4.5A4.5,4.5,0,0,1,7.758,13.5Zm2,0a2.5,2.5,0,1,0,2.5-2.5A2.5,2.5,0,0,0,9.758,13.5ZM54.7,17.256a4.966,4.966,0,0,1,.3-.549,5.833,5.833,0,0,0,.654-4.415,6.275,6.275,0,0,0-1.935-3.021A5.8,5.8,0,0,0,44.882,11.1a4.969,4.969,0,0,0-.612,2.6,5.188,5.188,0,0,0,.54,2.535l.2.387-1.592-.05c-.876-.028-6.406-.151-12.289-.274s-11.354-.246-12.154-.273l-1.455-.048.191-.546a4.011,4.011,0,0,0,.194-1.654,4.518,4.518,0,0,0-.176-1.681A5.806,5.806,0,0,0,10.341,8.23a5.523,5.523,0,0,0-2.29,1.452,5.444,5.444,0,0,0-1.66,3.981,5.9,5.9,0,0,0,.287,1.967c.048.122-.021.133-.817.133-.815,0-.889-.013-1.174-.2a5.289,5.289,0,0,1-2.2-3.072,11.117,11.117,0,0,1-.032-3.716A22.871,22.871,0,0,1,3.4,5.414l.364-.994.782-.042a5.04,5.04,0,0,0,.82-.082A10.921,10.921,0,0,0,4.8,2.53a17.094,17.094,0,0,0-1.767-.286c-.943-.127-1.88-.285-2.081-.351A1.364,1.364,0,0,1,.021,1a1.915,1.915,0,0,1,.1-1c.029-.015.792.033,1.7.108,6.192.513,9.315,1.213,9.934,2.227.192.315.2.59.019.6-.074,0-1.346-.125-2.829-.279S6.23,2.4,6.206,2.42a3.389,3.389,0,0,0,.3.776c.231.494.385.734.47.734s1.06-.171,2.2-.38A150.231,150.231,0,0,1,27.647.932c.694-.051,2.637-.093,4.318-.1a19.251,19.251,0,0,1,5.478.419c2.58.539,4.253,1.174,8.541,3.24,2.986,1.439,2.865,1.392,4.129,1.573A24.007,24.007,0,0,1,61.92,11.291l.7.54c.047.021-.479,2.4-.738,3.344L61.574,16.3l.152.4a1.715,1.715,0,0,1,.128.424c-.014.014-.915.053-2,.088-1.518.049-3.149.077-4.16.077A6.4,6.4,0,0,1,54.7,17.256ZM27.533,2.352c-.589.066-2.36.292-3.936.5s-3.326.433-3.889.5-1.032.123-1.045.135S23.34,4.1,29.085,4.826L39.53,6.146l1.6-.011c1.581-.011,2.038-.055,2.2-.211s0-.294-.756-.759a20.405,20.405,0,0,0-8.8-2.929c-.383-.04-1.072-.059-1.87-.059C30.4,2.179,28.492,2.245,27.533,2.352Z" transform="translate(683.242 314)" fill="#987b33" stroke="rgba(0,0,0,0)" stroke-miterlimit="10" stroke-width="1"/>
    <path id="Path_4" data-name="Path 4" d="M4342.03,1471.91a1.123,1.123,0,0,0,.225.048c.249,1.117.568,2.3.568,2.3l2.273.284.522.016v.114a4.109,4.109,0,0,0,3.945,4.246c.113.009.228.015.343.015a4.283,4.283,0,0,0,1.528-.281,3.435,3.435,0,0,0,.68-.3c-.044.018-.09.034-.136.051a4.287,4.287,0,0,0,2.213-3.588l.5.015,26.139.5.641.014a4.062,4.062,0,0,0,3.9,3.581c.113.009.227.015.343.015a4.275,4.275,0,0,0,1.528-.281,3.471,3.471,0,0,0,.68-.3c-.044.018-.09.034-.137.051a4.3,4.3,0,0,0,2.128-2.882l.862.019s2.937.627,4.078-1.361c.2-.009.333-.018.333-.018s.625-.1.661-1.325c.031-1.037-.283-1.26-.283-1.26l-.168-.011c.093-1.969-.5-1.921-.5-1.921v-.027h.021a2.524,2.524,0,0,0,0-1.068c-.092-.342-.67-.8-.67-.8h-.037l-.019-.019c-.568-.5-12.288-4.333-12.288-4.333s-7.245-4.546-10.015-5.185a66.652,66.652,0,0,0-14.986-.852,52.1,52.1,0,0,0-8.1,1.136s-1.765,1.477-3.216,2.875a8.026,8.026,0,0,0-2.154,3.123,2.583,2.583,0,0,0-.17.465c-.055.227-.1.452-.132.674-.021.12-.042.241-.059.366a7.5,7.5,0,0,0,.026,2.4c.044.378.092.6.092.6s-1.137.426-1.208,1.136a1.3,1.3,0,0,0,0,.185h0c-.293.141-.365,1.429.061,1.589m41.06,2.732a2.615,2.615,0,1,1,2.616,2.616,2.615,2.615,0,0,1-2.616-2.616m-28.228-16.3a12.422,12.422,0,0,0-1.7,2.273,6.825,6.825,0,0,0-1.03,2.948s-3.3.213-3.872-.355c-.463-.463.825-2.242,2.06-3.09a10.017,10.017,0,0,1,4.546-1.776m11.864,7.979a.284.284,0,0,1,.3-.267l2.339.133a.284.284,0,1,1-.032.567l-2.34-.133a.284.284,0,0,1-.268-.3m-1.387-8.3a30.309,30.309,0,0,1,6.712.923c2.253.8,8.239,4.4,8.1,5.185-.092.5-13.851.035-13.851.035s-.172-2.062-.32-3.054c-.142-.959-.639-3.09-.639-3.09m-.746,5.86h-11.33a5.348,5.348,0,0,1,.425-1.918,12.966,12.966,0,0,1,2.415-3.587,27.923,27.923,0,0,1,3.835-.32c2.273-.046,4.226.036,4.226.036Zm-12.108,1.977a.284.284,0,0,1,.3-.267l2.338.133a.284.284,0,1,1-.032.567l-2.34-.133a.284.284,0,0,1-.267-.3m-5.2,8.78a2.615,2.615,0,1,1,2.616,2.616,2.615,2.615,0,0,1-2.616-2.616" transform="translate(-3549.567 -1144.245)" fill="#987b33"/>
    <path id="Path_5" data-name="Path 5" d="M4946.58,1472.58a1.413,1.413,0,0,0,.371.073l1.461,1.828,2.1.282s-.008-.035-.018-.1l.438.018a4.565,4.565,0,0,0,4.389,4.179c.127.01.255.017.384.017a4.8,4.8,0,0,0,1.712-.315,3.847,3.847,0,0,0,.762-.34c-.049.02-.1.038-.153.057a4.812,4.812,0,0,0,2.379-3.207l.674.028,23.357.053.189.036h1.1a4.534,4.534,0,0,0,4.307,3.671c.127.01.255.017.384.017a4.789,4.789,0,0,0,1.712-.315,3.841,3.841,0,0,0,.762-.34c-.049.02-.1.038-.153.057a4.812,4.812,0,0,0,2.354-3.09h.691v.044a32.26,32.26,0,0,0,6.5-.4,6.558,6.558,0,0,0,1.956-.761h.022a1.439,1.439,0,0,0,1.233-1.468c.054-1.079-.458-1.363-.521-1.394a2.924,2.924,0,0,0-1.3-1.968.048.048,0,0,0,.011-.032.056.056,0,0,0-.021-.041.058.058,0,0,0-.043-.014h-.023a8.11,8.11,0,0,0-2.648-3.153c-5.084-2.943-12.041-2.765-12.041-2.765a22.188,22.188,0,0,0-3.479-2.765c-3.658-2.23-3.211-3.389-13.468-3.3s-16.411,2.676-19.265,4.995a17.477,17.477,0,0,0-3.084,3.355h-.031l-.2.333a18.971,18.971,0,0,0-1.229,2.021l-1.518,1.159v1.724a.439.439,0,0,0-.106.035c-.281.157-.351,1.6.059,1.781m40.906,1.5a2.931,2.931,0,1,1,2.931,2.931,2.93,2.93,0,0,1-2.931-2.931m-18.686-11.134a9.164,9.164,0,0,1,1.113-2.767l1.318-2.126a31.256,31.256,0,0,1,3.292-.153c3.135.014,4.833.253,6.739,1.19a17.969,17.969,0,0,1,5.6,4.5Zm-8.658-.31a11.493,11.493,0,0,1,2.374-1.843,19.239,19.239,0,0,1,7.962-2.654,13.243,13.243,0,0,0-1.545,2.009,26.93,26.93,0,0,0-1.422,2.751Zm-7.371,11.444a2.931,2.931,0,1,1,2.931,2.931,2.931,2.931,0,0,1-2.931-2.931" transform="translate(-4260.518 -1086.172)" fill="#987b33"/>
    <path id="Path_6" data-name="Path 6" d="M3208.4,1469.06q.008.078.022.154c.267,1.4,1.333,3.132,2,3.332a21.56,21.56,0,0,0,2.4.4v-.033h.03l.81.038v.13a4.544,4.544,0,0,0,4.364,4.7c.125.01.252.017.38.017a4.728,4.728,0,0,0,1.69-.311,3.788,3.788,0,0,0,.752-.335c-.048.02-.1.038-.151.057a4.744,4.744,0,0,0,2.438-3.809l1.154.054v.031l27.124,1v-.031h.028l1.307.008a4.461,4.461,0,0,0,4.176,3.32c.125.01.252.017.38.017a4.727,4.727,0,0,0,1.689-.311,3.788,3.788,0,0,0,.752-.335c-.048.02-.1.038-.151.057a4.754,4.754,0,0,0,2.222-2.693l.863.005-.006.03a5.529,5.529,0,0,0,3.577-1.361,3,3,0,0,0,.719-1.2c.8-2.533.467-3.2.467-3.2l-.8-.533-.025-.061h.064a4.736,4.736,0,0,0,0-1.7,3.631,3.631,0,0,0-.9-1.275s-.148-.011-.379-.022l-.221-.542a20.574,20.574,0,0,0-6.331-1.6,57.691,57.691,0,0,0-6.865-.6s-7.93-4.865-9.53-5.265a46.6,46.6,0,0,0-7.2-1.333,118.439,118.439,0,0,0-20.726.733s-3.2,2.532-4.065,4.532a15.342,15.342,0,0,0-.932,4.816l-.007.056a5.333,5.333,0,0,0-1.08,3.07Zm46.008,3.991a2.893,2.893,0,1,1,2.893,2.893,2.893,2.893,0,0,1-2.893-2.893m-20.1-16a15.8,15.8,0,0,1,6.4,1.2c2.266,1.066,6.592,2.6,6.531,4.732-.021.739-2.666.533-2.666.533l-9.064-.533s-.133-1.066-.466-2.6-1.266-3.2-.733-3.332m-9.8,0c1.2-.333,7.356,0,7.356,0,.622.067.775,1.07.775,1.07l.491,4.75s-10.021-.219-10.354-.818.533-4.665,1.732-5m-9,15.995a2.893,2.893,0,1,1,2.893,2.893,2.893,2.893,0,0,1-2.893-2.893m1.809-15.777c1.066-.266,4.063-.552,4.73-.085.394.276.38.618-.464,2.6-.468,1.1-.735,2.07-1.4,2.136s-5.265-.733-5.465-1.666,1.535-2.714,2.6-2.981" transform="translate(-2521.632 -1197.68)" fill="#987b33"/>
    <path id="Path_7" data-name="Path 7" d="M557.977,902.462h1.567a5.467,5.467,0,1,1,9.931-4.574h14.708a.21.21,0,0,1,.212.212.213.213,0,0,1-.212.212H569.648a5.477,5.477,0,0,1-.2,4.15H590.67a5.827,5.827,0,0,1-.313-.847H571.3a.215.215,0,0,1-.212-.212.212.212,0,0,1,.212-.212h18.964a5.29,5.29,0,0,1-.1-1.042,5.467,5.467,0,1,1,10.422,2.312H602.6c3.582,0,5.281,0,5.281-1.685v-2.465h-4.654a.212.212,0,0,1-.212-.212.21.21,0,0,1,.212-.212h4.654v-.474c0-1.194-9.948-4.032-13.319-4.032a41.131,41.131,0,0,0-9.274-4.684c-.631-.14-2.5,1.046-1.753,1.5.669.411,4.963,2.812,5.827,3.43-1.939.207-16.7.2-16.376-2.473-3.7-.525-15.169,1.232-17.295,1.855-.911.266-1.4,2.168-1.4,2.96a4.489,4.489,0,0,1-.665,1.914h3.654a.212.212,0,1,1,0,.424h-3.82a2.374,2.374,0,0,0-.1.69,4.347,4.347,0,0,0,4.629,3.46m37.648-6.932a4.62,4.62,0,1,1-4.62,4.62,4.62,4.62,0,0,1,4.62-4.62m0,2.117a2.5,2.5,0,1,1-2.5,2.5,2.5,2.5,0,0,1,2.5-2.5M564.5,895.53a4.62,4.62,0,1,1-4.62,4.62,4.62,4.62,0,0,1,4.62-4.62m0,2.117a2.5,2.5,0,1,1-2.5,2.5,2.5,2.5,0,0,1,2.5-2.5m19.853-7.822c.258.153.525.3.783.449.618.356,1.237.707,1.851,1.067.584.335,1.165.669,1.741,1.016.389.233.813.479,1.181.741a.76.76,0,0,1,.242.284H593.2c1.855,0-7.021-4.023-7.508-4.205a2.7,2.7,0,0,0-1.342.648" transform="translate(-54.822 -627.688)" fill="#987b33" fill-rule="evenodd"/>
    <path id="Path_8" data-name="Path 8" d="M3.943,1461.91h.22a5.605,5.605,0,0,1-.076-.932,5.466,5.466,0,0,1,9.058-4.121H32.664a.213.213,0,0,1,.15.363.21.21,0,0,1-.15.061H13.577a5.448,5.448,0,0,1,1.44,3.7,5.188,5.188,0,0,1-.08.932H42.942a6.177,6.177,0,0,1-.081-.847h-23.5a.212.212,0,1,1,0-.424H42.874a5.466,5.466,0,0,1,10.922.339,5.391,5.391,0,0,1-.089.982c1.813,0,3.367-.466,2.414-4.679h-1.69a.212.212,0,0,1-.212-.212.215.215,0,0,1,.212-.212h1.588a9.252,9.252,0,0,0-7.936-7.394c-1.237-5.023-5.874-10.587-13.065-10.587H3.943C0,1438.88,0,1438.79,0,1441.97v14.89H2.859a.213.213,0,0,1,.212.212.21.21,0,0,1-.212.212H0v.957c0,3.561-.03,3.672,3.943,3.672m44.386-5.552a4.62,4.62,0,1,1-4.62,4.62,4.62,4.62,0,0,1,4.62-4.62m0,2.118a2.5,2.5,0,1,1-2.5,2.5,2.5,2.5,0,0,1,2.5-2.5m-38.78-2.119a4.62,4.62,0,1,1-4.616,4.62,4.62,4.62,0,0,1,4.616-4.62m0,2.118a2.5,2.5,0,1,1-2.5,2.5,2.5,2.5,0,0,1,2.5-2.5m33.849-9.012v-5.781c-.153-.156-.314-.309-.474-.457a11.513,11.513,0,0,0-7.906-3.079c-2.4,0-2.333-.064-2.333,1.639v5.463c0,1.9.263,2.215,2.354,2.215Zm.424-5.332v5.332H46.77a13.456,13.456,0,0,0-2.947-5.332m-15.906,5.332H4.078a.212.212,0,0,1-.212-.212.215.215,0,0,1,.212-.212H27.916a.215.215,0,0,1,.212.212.212.212,0,0,1-.212.212" transform="translate(592.824 -1128.878)" fill="#987b33" fill-rule="evenodd"/>
    <path id="Path_9" data-name="Path 9" d="M559.519,1453.64h18.8c6,0,8.245,2.291,12.451,6.581,12.12,0,15.91.5,15.91,6.666v.2H604.4a.212.212,0,0,0-.212.212.215.215,0,0,0,.212.212h2.278c-.1,3.015-.982,4.316-2.6,4.874a5.992,5.992,0,0,0,.042-.682,5.466,5.466,0,1,0-10.93-.169H570.335a.213.213,0,0,0-.212.212.21.21,0,0,0,.212.212h22.851a5.531,5.531,0,0,0,.106.847H568.057a5.237,5.237,0,0,0,.115-1.1,5.45,5.45,0,0,0-1.965-4.193h18.312a.215.215,0,0,0,.212-.212.212.212,0,0,0-.212-.212H565.626a5.466,5.466,0,0,0-8.389,4.616,5.571,5.571,0,0,0,.11,1.1h-.1c-.9,0-4.917.61-5.476-5.294h4.358a.213.213,0,0,0,.151-.363.21.21,0,0,0-.151-.062H551.74c-.021-.326-.03-.669-.03-1.029,0-2.825,1.228-3.032,1.411-4.353,1.143-8.1,2.57-8.059,6.4-8.059m39.13,13.442a4.618,4.618,0,1,1-4.62,4.616,4.618,4.618,0,0,1,4.62-4.616m0,2.117a2.5,2.5,0,1,1-2.5,2.5,2.5,2.5,0,0,1,2.5-2.5m-35.946-2.117a4.618,4.618,0,1,1-4.62,4.616,4.618,4.618,0,0,1,4.62-4.616m0,2.117a2.5,2.5,0,1,1-2.5,2.5,2.5,2.5,0,0,1,2.5-2.5m-1.618-14.288a7.737,7.737,0,0,0-2.888.3,2.789,2.789,0,0,0-1.126,1.541,17.647,17.647,0,0,0-.872,3.464h6.3v-5.31Zm1.842,5.31h14.589v-5.31h-14.59Zm15.012,0H589a21.839,21.839,0,0,0-4.891-4.07,11.864,11.864,0,0,0-5.785-1.241h-.381Z" transform="translate(239.591 -1196.637)" fill="#987b33" fill-rule="evenodd"/>
    <path id="Path_10" data-name="Path 10" d="M4336.55,20.373h0c.047.39.078.633.078.633l3.457.629h0v-.008h0l.3.025a4.41,4.41,0,0,0,3.808,2.407c.125.01.25.016.378.016a4.714,4.714,0,0,0,1.685-.31,3.788,3.788,0,0,0,.75-.334l-.15.056a4.762,4.762,0,0,0,1.513-1.322l.459.023h0v.007c3.153.157,7,.305,11.295.38,7.941.139,14.123.13,18.794.061l-.006-.007h.279a4.4,4.4,0,0,0,3.267,1.59c.125.01.25.016.378.016a4.718,4.718,0,0,0,1.685-.31,3.808,3.808,0,0,0,.749-.334c-.047.02-.1.038-.149.056a4.748,4.748,0,0,0,1.432-1.218l.262-.011h0l-.006.008c2.848-.122,4.11-.24,4.11-.24l.144-1.811h0l.024-.3h.025a3.132,3.132,0,0,0,.626-1.572c0-1.136-.4-1.269-.428-1.276h0a15.827,15.827,0,0,0-5.971-3.3c-.692-.206-1.606-.413-2.633-.611-4.451-.862-11.038-1.589-11.038-1.589s-.374-.189-.978-.482c-.906-.454-2.325-1.168-3.411-1.72a16.084,16.084,0,0,0-3.52-1.257h-.221l-.045-.013q-.157-.044-.306-.081a5.684,5.684,0,0,0-.792-.146,33.735,33.735,0,0,0-14.142,1.414c-6.993,2.121-8.878,2.121-8.878,2.121l-2.042-.314h0l-.236,1.807-.012.007a2.516,2.516,0,0,0-1.01,2.114c0,1.142.322,3.938.474,5.189m43.4-.868a2.883,2.883,0,1,1,2.883,2.883,2.883,2.883,0,0,1-2.883-2.883m-29.185-9.511a21.033,21.033,0,0,1,5.933-1.246c3.63-.283,6.91-.388,6.91-.388a13.7,13.7,0,0,1,3.264,1.173c1.809.917,3.907,2.024,3.907,2.024s-.509.2-1.152.38l-6.234-3.549-1.448.065,6.675,3.714a4.591,4.591,0,0,1-.617.064c-1.122.028-13.547-.368-14.434-.651a17.5,17.5,0,0,1-2.8-1.586m-2.632.868c.135-.335.647-.445,1.144-.244s.789.635.653.97-.647.445-1.144.244-.789-.635-.653-.97m-6.447,8.486a2.883,2.883,0,1,1,2.883,2.883,2.883,2.883,0,0,1-2.883-2.883" transform="translate(-3838.685 307.181)" fill="#987b33"/>
    <path id="Path_11" data-name="Path 11" d="M44.981,4.423c-8.936-6.26-24.063-5.379-31.092-.479-5.543,0-5.709-.152-5.709,3.74a6.7,6.7,0,0,0,.072.982h6.035a.215.215,0,0,1,.212.212.212.212,0,0,1-.212.212H8.337c.6,2.562,2.96,4.239,7.428,4.531a5.584,5.584,0,0,1-.051-.758,5.466,5.466,0,0,1,8.97-4.2H39.306a.212.212,0,1,1,0,.424H25.136a5.47,5.47,0,0,1,1.448,4.573H46.9a5.5,5.5,0,0,1-.059-.8v-.046h-18.3a.212.212,0,1,1,0-.424h18.32a5.466,5.466,0,1,1,10.854,1.27c2.164,0,4.633-.428,4.633-1.148V10.627a7.149,7.149,0,0,0-.131-1.537H58.964a.212.212,0,0,1-.212-.212.215.215,0,0,1,.212-.212h3.13c-.83-2.274-4.2-3.189-17.113-4.243M25.052,4.96V1.073c-.927.106-1.851.254-2.757.44a24.741,24.741,0,0,0-5.8,1.9l1.376,1.44Zm.424-3.934V4.969l9.579.144V1.382c-.9-.165-1.8-.288-2.7-.377a34.6,34.6,0,0,0-6.882.021m10,.436V5.121l7.365.11c1.1.017,2.016.1,1.067-.508a24.247,24.247,0,0,0-8.432-3.261M52.3,8.242a4.62,4.62,0,1,1-4.62,4.62,4.62,4.62,0,0,1,4.62-4.62m0,2.117a2.5,2.5,0,1,1-2.5,2.5,2.5,2.5,0,0,1,2.5-2.5M21.177,8.242a4.62,4.62,0,1,1-4.616,4.62,4.62,4.62,0,0,1,4.616-4.62m0,2.117a2.5,2.5,0,1,1-2.5,2.5,2.5,2.5,0,0,1,2.5-2.5" transform="translate(584.644 260.003)" fill="#987b33" fill-rule="evenodd"/>
    <path id="Path_12" data-name="Path 12" d="M44.981,4.423c-8.936-6.26-24.063-5.379-31.092-.479-5.543,0-5.709-.152-5.709,3.74a6.7,6.7,0,0,0,.072.982h6.035a.215.215,0,0,1,.212.212.212.212,0,0,1-.212.212H8.337c.6,2.562,2.96,4.239,7.428,4.531a5.584,5.584,0,0,1-.051-.758,5.466,5.466,0,0,1,8.97-4.2H39.306a.212.212,0,1,1,0,.424H25.136a5.47,5.47,0,0,1,1.448,4.573H46.9a5.5,5.5,0,0,1-.059-.8v-.046h-18.3a.212.212,0,1,1,0-.424h18.32a5.466,5.466,0,1,1,10.854,1.27c2.164,0,4.633-.428,4.633-1.148V10.627a7.149,7.149,0,0,0-.131-1.537H58.964a.212.212,0,0,1-.212-.212.215.215,0,0,1,.212-.212h3.13c-.83-2.274-4.2-3.189-17.113-4.243M25.052,4.96V1.073c-.927.106-1.851.254-2.757.44a24.741,24.741,0,0,0-5.8,1.9l1.376,1.44Zm.424-3.934V4.969l9.579.144V1.382c-.9-.165-1.8-.288-2.7-.377a34.6,34.6,0,0,0-6.882.021m10,.436V5.121l7.365.11c1.1.017,2.016.1,1.067-.508a24.247,24.247,0,0,0-8.432-3.261M52.3,8.242a4.62,4.62,0,1,1-4.62,4.62,4.62,4.62,0,0,1,4.62-4.62m0,2.117a2.5,2.5,0,1,1-2.5,2.5,2.5,2.5,0,0,1,2.5-2.5M21.177,8.242a4.62,4.62,0,1,1-4.616,4.62,4.62,4.62,0,0,1,4.616-4.62m0,2.117a2.5,2.5,0,1,1-2.5,2.5,2.5,2.5,0,0,1,2.5-2.5" transform="translate(490.204 427.899)" fill="#987b33" fill-rule="evenodd"/>
    <path id="Path_13" data-name="Path 13" d="M47.981,4.423c-8.936-6.26-27.063-5.379-34.092-.479-5.543,0-9.148,1.246-7.709,3.74a6.7,6.7,0,0,0,.072.982h8.035a.215.215,0,0,1,.212.212.212.212,0,0,1-.212.212H6.337c.6,2.562,4.96,4.239,9.428,4.531a5.584,5.584,0,0,1-.051-.758,5.466,5.466,0,0,1,8.97-4.2H42.306a.212.212,0,1,1,0,.424H25.136a5.47,5.47,0,0,1,1.448,4.573H49.9a5.5,5.5,0,0,1-.059-.8v-.046h-21.3a.212.212,0,1,1,0-.424h21.32a5.466,5.466,0,1,1,10.854,1.27c2.164,0,7.633-.428,7.633-1.148V10.627a7.149,7.149,0,0,0-.131-1.537H61.964a.212.212,0,0,1-.212-.212.215.215,0,0,1,.212-.212h6.13c-.83-2.274-7.2-3.189-20.113-4.243M25.052,4.96V1.073c-.927.106-1.851.254-2.757.44a24.741,24.741,0,0,0-5.8,1.9l1.376,1.44Zm.424-3.934V4.969l12.579.144V1.382c-.9-.165-1.8-.288-2.7-.377a71.258,71.258,0,0,0-9.882.021m13,.436V5.121l7.365.11c1.1.017,2.016.1,1.067-.508a24.247,24.247,0,0,0-8.432-3.261M55.3,8.242a4.62,4.62,0,1,1-4.62,4.62,4.62,4.62,0,0,1,4.62-4.62m0,2.117a2.5,2.5,0,1,1-2.5,2.5,2.5,2.5,0,0,1,2.5-2.5M21.177,8.242a4.62,4.62,0,1,1-4.616,4.62,4.62,4.62,0,0,1,4.616-4.62m0,2.117a2.5,2.5,0,1,1-2.5,2.5,2.5,2.5,0,0,1,2.5-2.5" transform="translate(782.113 373.003)" fill="#987b33" fill-rule="evenodd"/>
    <path id="Path_14" data-name="Path 14" d="M528.679,419.811l-2.453,6.14h3.564l-1.931,5.69,5.469-8.359h-2.955l2.612-3.471Z" transform="translate(6.344 2)" fill="#987b33"/>
  </g>
</svg>
